<svg xmlns="http://www.w3.org/2000/svg" viewBox="0 0 256 256" style="enable-background:new 0 0 256 256" xml:space="preserve"><style>.st2{fill:none;stroke:#6b1d1d;stroke-width:.5;stroke-miterlimit:10}.st3{fill:#3a312a}.st4{fill:#87796f}.st14{fill:#d7e057}.st26{fill:#f7e3c7}</style><g id="Layer_1"><path d="m61.616 16.373-24.448-.013C25.755 16.354 16.5 25.605 16.5 37.017v158.966c0 11.408 9.249 20.657 20.657 20.657h119.186c11.408 0 20.657-9.249 20.657-20.657V68.485l-.304-31.604c-.109-11.327-9.318-20.453-20.645-20.459l-81.666-.043-12.769-.006z" style="fill:#f16c7a"/><path class="st3" d="M156.343 218.141H37.157c-12.217 0-22.157-9.94-22.157-22.158V37.018a22.011 22.011 0 0 1 6.494-15.672 22.008 22.008 0 0 1 15.663-6.485h.012l24.448.013a1.5 1.5 0 1 1-.001 3h-.001l-24.448-.014h-.01a19.033 19.033 0 0 0-13.543 5.607A19.037 19.037 0 0 0 18 37.018v158.966c0 10.564 8.594 19.157 19.157 19.157h119.186c10.563 0 19.157-8.594 19.157-19.157V68.485l-.304-31.59c-.101-10.457-8.689-18.968-19.146-18.974l-81.666-.041a1.5 1.5 0 0 1 .001-3h.001l81.667.042c12.094.006 22.028 9.851 22.144 21.944l.304 31.605v127.513c-.001 12.217-9.94 22.157-22.158 22.157z"/><path class="st26" d="M39.5 127.291v91.495c0 11.526 9.329 20.854 20.854 20.854h118.792c11.525 0 20.854-9.328 20.854-20.854V91.485l-52.135-52.136h-87.51c-11.525 0-20.854 9.329-20.854 20.854V127.291z"/><path class="st3" d="M179.146 241.141H60.354C48.028 241.141 38 231.112 38 218.786v-91.495a1.5 1.5 0 1 1 3 0v91.495c0 10.672 8.682 19.354 19.354 19.354h118.792c10.672 0 19.354-8.683 19.354-19.354V92.106L147.243 40.85H60.354C49.682 40.85 41 49.532 41 60.204v53.87a1.5 1.5 0 1 1-3 0v-53.87C38 47.878 48.028 37.85 60.354 37.85h87.51c.398 0 .779.158 1.061.439l52.136 52.136a1.5 1.5 0 0 1 .439 1.061v127.301c0 12.325-10.028 22.354-22.354 22.354z"/><path class="st3" d="M170.506 156.206H68.994a1.5 1.5 0 1 1 0-3h101.513a1.5 1.5 0 1 1-.001 3zM170.506 181.093H68.994a1.5 1.5 0 1 1 0-3h101.513a1.5 1.5 0 1 1-.001 3zM170.506 205.98H68.994a1.5 1.5 0 1 1 0-3h101.513a1.5 1.5 0 1 1-.001 3z"/><path class="st26" d="M200 91.485v.129h-33.668c-10.14 0-18.36-8.22-18.36-18.36V39.457L200 91.485z"/><path class="st3" d="M200 93.114h-33.667c-10.951 0-19.86-8.909-19.86-19.86V39.457a1.501 1.501 0 0 1 2.561-1.061l52.028 52.028a1.5 1.5 0 0 1 .439 1.061v.129a1.501 1.501 0 0 1-1.501 1.5zm-50.528-50.036v30.176c0 9.297 7.563 16.86 16.86 16.86h30.175l-47.035-47.036z"/><path class="st14" d="M226.278 26.131s3.408 12.659 13.222 13.246c0 0-13.1 4.525-13.321 14.202 0 0-2.579-13.572-12.925-14.059 0 .001 12.05-1.825 13.024-13.389z"/><path class="st3" d="M226.177 55.079a1.501 1.501 0 0 1-1.472-1.217c-.024-.125-2.495-12.418-11.523-12.844a1.5 1.5 0 0 1-.154-2.982c.441-.068 10.895-1.816 11.755-12.032a1.498 1.498 0 0 1 1.359-1.367 1.498 1.498 0 0 1 1.584 1.102c.032.116 3.259 11.626 11.864 12.142a1.501 1.501 0 0 1 .402 2.914c-.121.042-12.118 4.311-12.313 12.819a1.5 1.5 0 0 1-1.502 1.465zm-7.741-15.729c3.878 1.969 6.231 5.746 7.587 8.877 2.027-4.022 5.942-6.788 8.949-8.428-4.134-1.842-6.783-5.651-8.334-8.723-1.792 4.361-5.271 6.869-8.202 8.274z"/><path class="st14" d="M204.579 43.112s2.411 8.954 9.352 9.369c0 0-9.266 3.201-9.422 10.045 0 0-1.824-9.6-9.142-9.944 0 0 8.524-1.291 9.212-9.47z"/><path class="st3" d="M204.508 64.026a1.5 1.5 0 0 1-1.473-1.22c-.016-.082-1.704-8.442-7.739-8.726a1.5 1.5 0 0 1-.154-2.982c.296-.047 7.364-1.242 7.942-8.113a1.5 1.5 0 0 1 2.942-.266c.021.079 2.228 7.92 7.994 8.266a1.5 1.5 0 0 1 .4 2.915c-.081.028-8.282 2.952-8.412 8.661a1.5 1.5 0 0 1-1.5 1.465zm-4.519-11.527c2.107 1.332 3.523 3.395 4.447 5.279 1.376-2.232 3.515-3.871 5.365-4.972-2.287-1.269-3.884-3.35-4.941-5.225-1.174 2.288-3.015 3.877-4.871 4.918z"/><path class="st14" d="M204.579 16.454s2.411 8.954 9.352 9.37c0 0-9.266 3.201-9.422 10.045 0 0-1.824-9.6-9.142-9.944 0 0 8.524-1.292 9.212-9.471z"/><path class="st3" d="M204.508 37.369a1.5 1.5 0 0 1-1.472-1.22c-.016-.082-1.704-8.442-7.739-8.726a1.5 1.5 0 0 1-.154-2.982c.296-.047 7.364-1.242 7.942-8.113a1.5 1.5 0 0 1 1.36-1.368c.73-.07 1.392.4 1.582 1.102.021.079 2.228 7.92 7.993 8.265a1.5 1.5 0 0 1 .401 2.915c-.081.028-8.282 2.953-8.412 8.662a1.5 1.5 0 0 1-1.376 1.461c-.042.002-.084.004-.125.004zm-4.519-11.527c2.107 1.332 3.523 3.394 4.447 5.279 1.376-2.232 3.515-3.872 5.364-4.973-2.287-1.269-3.884-3.35-4.941-5.224-1.173 2.288-3.014 3.877-4.87 4.918z"/><path class="st4" d="m105.575 142.64-4.439-8.923-10.136.892 17.706-32.132 14.575 8.032z"/><path class="st3" d="M105.575 144.141h-.032a1.501 1.501 0 0 1-1.312-.832l-3.983-8.008-9.117.802a1.501 1.501 0 0 1-1.445-2.218l17.706-32.131a1.499 1.499 0 0 1 2.038-.59l14.575 8.031a1.502 1.502 0 0 1 .59 2.037l-17.706 32.132a1.5 1.5 0 0 1-1.314.777zm-4.438-11.924c.565 0 1.087.319 1.342.832l3.164 6.36 15.601-28.311-11.948-6.583-15.624 28.352 7.333-.645a1.94 1.94 0 0 1 .132-.005z"/><path class="st4" d="m134.425 142.64 4.439-8.923 10.136.892-17.706-32.132-14.575 8.032z"/><path class="st3" d="M134.425 144.141a1.5 1.5 0 0 1-1.314-.776l-17.706-32.132a1.503 1.503 0 0 1 .59-2.037l14.575-8.031a1.499 1.499 0 0 1 2.038.59l17.706 32.131a1.5 1.5 0 0 1-1.445 2.218l-9.117-.802-3.983 8.008c-.249.5-.754.82-1.312.832l-.032-.001zm-15.669-33.042 15.601 28.311 3.164-6.36a1.51 1.51 0 0 1 1.474-.826l7.333.645-15.624-28.352-11.948 6.582z"/><path d="m144.403 99.501-.013.01a5.838 5.838 0 0 0-1.977 6.085l.004.013c.98 3.602-1.625 7.186-5.354 7.365h-.01a5.84 5.84 0 0 0-5.181 3.766c-1.322 3.495-5.542 4.866-8.665 2.815h-.001a5.838 5.838 0 0 0-6.408 0l-.001.001c-3.124 2.05-7.343.68-8.665-2.815a5.838 5.838 0 0 0-5.181-3.766l-.01-.001c-3.729-.179-6.334-3.763-5.354-7.365l.004-.013a5.838 5.838 0 0 0-1.977-6.085l-.013-.01c-2.909-2.337-2.909-6.767 0-9.104l.013-.01a5.838 5.838 0 0 0 1.977-6.085l-.003-.013c-.98-3.602 1.625-7.187 5.354-7.365l.01-.001a5.838 5.838 0 0 0 5.181-3.766c1.322-3.495 5.542-4.866 8.665-2.815l.001.001a5.838 5.838 0 0 0 6.408 0l.001-.001c3.124-2.05 7.343-.68 8.665 2.815a5.838 5.838 0 0 0 5.181 3.766l.01.001c3.729.179 6.335 3.763 5.354 7.366l-.003.013a5.84 5.84 0 0 0 1.977 6.085l.012.01c2.908 2.336 2.908 6.765-.001 9.103z" style="fill:#8ac6dd"/><path class="st3" d="M126.4 122.018c-1.41 0-2.803-.41-4.018-1.207a4.342 4.342 0 0 0-4.764-.001 7.305 7.305 0 0 1-6.296.845 7.302 7.302 0 0 1-4.596-4.382 4.337 4.337 0 0 0-3.85-2.8 7.31 7.31 0 0 1-5.596-3.017 7.307 7.307 0 0 1-1.145-6.241 4.343 4.343 0 0 0-1.466-4.535 7.313 7.313 0 0 1-2.755-5.732c0-2.235 1-4.32 2.743-5.721a4.345 4.345 0 0 0 1.482-4.532 7.31 7.31 0 0 1 1.142-6.255 7.309 7.309 0 0 1 5.585-3.016 4.34 4.34 0 0 0 3.861-2.8 7.304 7.304 0 0 1 4.596-4.382 7.3 7.3 0 0 1 6.295.844 4.342 4.342 0 0 0 4.764.001 7.297 7.297 0 0 1 6.296-.845 7.302 7.302 0 0 1 4.596 4.382 4.337 4.337 0 0 0 3.85 2.8 7.307 7.307 0 0 1 5.596 3.017 7.303 7.303 0 0 1 1.145 6.241 4.343 4.343 0 0 0 1.466 4.535 7.312 7.312 0 0 1 2.755 5.73 7.307 7.307 0 0 1-2.768 5.742l-.013.01a4.328 4.328 0 0 0-1.444 4.503 7.311 7.311 0 0 1-1.142 6.254 7.307 7.307 0 0 1-5.585 3.017 4.34 4.34 0 0 0-3.861 2.8 7.304 7.304 0 0 1-4.596 4.382 7.388 7.388 0 0 1-2.277.363zm-12.804-51.136c-.451 0-.905.071-1.346.214a4.317 4.317 0 0 0-2.717 2.592 7.334 7.334 0 0 1-6.513 4.733 4.324 4.324 0 0 0-3.312 1.783 4.322 4.322 0 0 0-.677 3.691 7.342 7.342 0 0 1-2.481 7.66 4.327 4.327 0 0 0-1.634 3.392 4.32 4.32 0 0 0 1.622 3.384 7.343 7.343 0 0 1 2.498 7.657 4.324 4.324 0 0 0 .673 3.703 4.32 4.32 0 0 0 3.302 1.784 7.335 7.335 0 0 1 6.522 4.734 4.32 4.32 0 0 0 2.717 2.591 4.321 4.321 0 0 0 3.723-.499 7.34 7.34 0 0 1 8.055-.001 4.32 4.32 0 0 0 3.723.5 4.318 4.318 0 0 0 2.717-2.591 7.334 7.334 0 0 1 6.513-4.734 4.32 4.32 0 0 0 3.312-1.784 4.318 4.318 0 0 0 .677-3.689 7.342 7.342 0 0 1 2.482-7.661l.013-.01a4.323 4.323 0 0 0 1.622-3.384 4.32 4.32 0 0 0-1.622-3.383 7.343 7.343 0 0 1-2.498-7.657 4.324 4.324 0 0 0-.673-3.703 4.319 4.319 0 0 0-3.302-1.784 7.335 7.335 0 0 1-6.522-4.734 4.32 4.32 0 0 0-2.717-2.591 4.33 4.33 0 0 0-3.723.499 7.34 7.34 0 0 1-8.055.001 4.342 4.342 0 0 0-2.379-.713z"/><path class="st3" d="M126.4 122.018c-1.41 0-2.803-.41-4.018-1.207a4.342 4.342 0 0 0-4.764-.001 7.305 7.305 0 0 1-6.296.845 7.302 7.302 0 0 1-4.596-4.382 4.337 4.337 0 0 0-3.85-2.8 7.31 7.31 0 0 1-5.596-3.017 7.307 7.307 0 0 1-1.145-6.241 4.343 4.343 0 0 0-1.466-4.535 7.313 7.313 0 0 1-2.755-5.732c0-2.235 1-4.32 2.743-5.721a4.345 4.345 0 0 0 1.482-4.532 7.31 7.31 0 0 1 1.142-6.255 7.309 7.309 0 0 1 5.585-3.016 4.34 4.34 0 0 0 3.861-2.8 7.304 7.304 0 0 1 4.596-4.382 7.3 7.3 0 0 1 6.295.844 4.342 4.342 0 0 0 4.764.001 7.297 7.297 0 0 1 6.296-.845 7.302 7.302 0 0 1 4.596 4.382 4.337 4.337 0 0 0 3.85 2.8 7.307 7.307 0 0 1 5.596 3.017 7.303 7.303 0 0 1 1.145 6.241 4.343 4.343 0 0 0 1.466 4.535 7.312 7.312 0 0 1 2.755 5.73 7.307 7.307 0 0 1-2.768 5.742l-.013.01a4.328 4.328 0 0 0-1.444 4.503 7.311 7.311 0 0 1-1.142 6.254 7.307 7.307 0 0 1-5.585 3.017 4.34 4.34 0 0 0-3.861 2.8 7.304 7.304 0 0 1-4.596 4.382 7.388 7.388 0 0 1-2.277.363zm-12.804-51.136c-.451 0-.905.071-1.346.214a4.317 4.317 0 0 0-2.717 2.592 7.334 7.334 0 0 1-6.513 4.733 4.324 4.324 0 0 0-3.312 1.783 4.322 4.322 0 0 0-.677 3.691 7.342 7.342 0 0 1-2.481 7.66 4.327 4.327 0 0 0-1.634 3.392 4.32 4.32 0 0 0 1.622 3.384 7.343 7.343 0 0 1 2.498 7.657 4.324 4.324 0 0 0 .673 3.703 4.32 4.32 0 0 0 3.302 1.784 7.335 7.335 0 0 1 6.522 4.734 4.32 4.32 0 0 0 2.717 2.591 4.321 4.321 0 0 0 3.723-.499 7.34 7.34 0 0 1 8.055-.001 4.32 4.32 0 0 0 3.723.5 4.318 4.318 0 0 0 2.717-2.591 7.334 7.334 0 0 1 6.513-4.734 4.32 4.32 0 0 0 3.312-1.784 4.318 4.318 0 0 0 .677-3.689 7.342 7.342 0 0 1 2.482-7.661l.013-.01a4.323 4.323 0 0 0 1.622-3.384 4.32 4.32 0 0 0-1.622-3.383 7.343 7.343 0 0 1-2.498-7.657 4.324 4.324 0 0 0-.673-3.703 4.319 4.319 0 0 0-3.302-1.784 7.335 7.335 0 0 1-6.522-4.734 4.32 4.32 0 0 0-2.717-2.591 4.33 4.33 0 0 0-3.723.499 7.34 7.34 0 0 1-8.055.001 4.342 4.342 0 0 0-2.379-.713z"/><circle transform="rotate(-80.781 120.002 94.947)" class="st14" cx="120" cy="94.949" r="17.587"/><path class="st3" d="M120 114.036c-10.525 0-19.087-8.562-19.087-19.087S109.475 75.861 120 75.861s19.087 8.562 19.087 19.088c0 10.525-8.562 19.087-19.087 19.087zm0-35.175c-8.871 0-16.087 7.217-16.087 16.088 0 8.87 7.217 16.087 16.087 16.087s16.087-7.217 16.087-16.087c0-8.871-7.216-16.088-16.087-16.088z"/><path d="m120.901 85.107 2.585 5.239a1 1 0 0 0 .756.549l5.781.84a1.004 1.004 0 0 1 .557 1.713l-4.183 4.078a1.003 1.003 0 0 0-.289.889l.988 5.758a1.005 1.005 0 0 1-1.458 1.059l-5.171-2.718a1.004 1.004 0 0 0-.935 0l-5.171 2.718a1.005 1.005 0 0 1-1.458-1.059l.988-5.758a1.003 1.003 0 0 0-.289-.889l-4.183-4.078a1.004 1.004 0 0 1 .557-1.713l5.781-.84c.327-.048.61-.253.756-.549l2.585-5.239a1.006 1.006 0 0 1 1.803 0z" style="fill:#fae6ca"/><path class="st3" d="M113.892 106.851a2.496 2.496 0 0 1-1.47-.481 2.488 2.488 0 0 1-.996-2.449l.943-5.501-3.997-3.896a2.486 2.486 0 0 1-.634-2.566 2.49 2.49 0 0 1 2.022-1.706l5.524-.803 2.47-5.005c.425-.861 1.286-1.396 2.246-1.396s1.821.535 2.246 1.396l2.47 5.005 5.523.803a2.49 2.49 0 0 1 2.022 1.706 2.49 2.49 0 0 1-.634 2.566l-3.997 3.896.943 5.501a2.486 2.486 0 0 1-.996 2.449 2.49 2.49 0 0 1-2.639.191l-4.94-2.598-4.94 2.598c-.368.194-.768.29-1.166.29zm6.108-5.953c.4 0 .799.096 1.163.287l4.284 2.252-.818-4.768c-.14-.812.129-1.64.719-2.216l3.466-3.379-4.788-.695a2.508 2.508 0 0 1-1.887-1.372L120 86.671l-2.141 4.339a2.507 2.507 0 0 1-1.884 1.37l-4.79.695 3.464 3.377c.591.578.86 1.406.72 2.219l-.817 4.767 4.282-2.252a2.51 2.51 0 0 1 1.166-.288zm9.808-7.678h.01-.01zm-10.252-7.449.001.002-.001-.002z"/><path d="m175.46 64.833-15.14-15.15-.12-12.79c-.1-10.45-8.69-18.96-19.15-18.97h15c10.46.01 19.05 8.52 19.15 18.97l.26 27.94z" style="fill:#d34e5c"/><path d="M183.5 93.113v125.67c0 10.68-8.68 19.36-19.35 19.36h15c10.67 0 19.35-8.68 19.35-19.36V93.113h-15z" style="fill:#decaad"/></g></svg>